<?xml version="1.0" standalone="no"?>
<!DOCTYPE svg PUBLIC "-//W3C//DTD SVG 20010904//EN"
 "http://www.w3.org/TR/2001/REC-SVG-20010904/DTD/svg10.dtd">
<svg version="1.0" xmlns="http://www.w3.org/2000/svg"
 width="256.000000pt" height="256.000000pt" viewBox="0 0 256.000000 256.000000"
 preserveAspectRatio="xMidYMid meet">

<g transform="translate(0.000000,256.000000) scale(0.100000,-0.100000)"
fill="#000000" stroke="none">
<path d="M705 2431 c-84 -39 -135 -120 -135 -213 1 -100 10 -112 448 -551
l407 -407 -402 -403 c-426 -426 -423 -423 -423 -516 0 -86 54 -172 133 -210
57 -28 146 -28 201 -1 27 13 209 188 537 517 534 537 519 519 519 624 0 94
-14 110 -551 646 -361 359 -515 506 -543 517 -52 22 -141 20 -191 -3z"/>
</g>
</svg>
