<?xml version="1.0" standalone="no"?>
<!DOCTYPE svg PUBLIC "-//W3C//DTD SVG 20010904//EN"
 "http://www.w3.org/TR/2001/REC-SVG-20010904/DTD/svg10.dtd">
<svg version="1.0" xmlns="http://www.w3.org/2000/svg"
 width="920.000000pt" height="512.000000pt" viewBox="0 0 920.000000 512.000000"
 preserveAspectRatio="xMidYMid meet">

<g transform="translate(0.000000,512.000000) scale(0.100000,-0.100000)"
fill="#000000" stroke="none">
<path d="M5603 5105 c-29 -8 -72 -26 -95 -41 -56 -34 -2259 -2234 -2302 -2299
-88 -131 -85 -298 7 -422 50 -68 2254 -2265 2298 -2291 20 -12 64 -29 100 -38
165 -42 340 40 417 196 24 49 27 67 27 155 0 175 86 75 -1039 1203 l-991 992
991 993 c1125 1127 1039 1027 1039 1202 0 89 -3 106 -27 156 -49 99 -132 167
-235 194 -70 18 -122 18 -190 0z"/>
</g>
</svg>
